<svg width="255" height="248" viewBox="0 0 255 248" fill="none" xmlns="http://www.w3.org/2000/svg">
<ellipse cx="127" cy="124" rx="90" ry="91" fill="#668493"/>
<g filter="url(#filter0_d_138_27)">
<path d="M62.1562 176.7C71.1875 169.983 81.2813 164.687 92.4375 160.812C103.594 156.937 115.281 155 127.5 155C139.719 155 151.406 156.937 162.562 160.812C173.719 164.687 183.812 169.983 192.844 176.7C199.042 169.639 203.867 161.631 207.32 152.675C210.773 143.719 212.5 134.161 212.5 124C212.5 101.094 204.221 81.5902 187.664 65.4875C171.107 49.3847 151.052 41.3333 127.5 41.3333C103.948 41.3333 83.8932 49.3847 67.3359 65.4875C50.7786 81.5902 42.5 101.094 42.5 124C42.5 134.161 44.2266 143.719 47.6797 152.675C51.1328 161.631 55.9583 169.639 62.1562 176.7ZM127.5 134.333C117.052 134.333 108.242 130.846 101.07 123.871C93.8984 116.896 90.3125 108.328 90.3125 98.1666C90.3125 88.0055 93.8984 79.4375 101.07 72.4625C108.242 65.4875 117.052 62 127.5 62C137.948 62 146.758 65.4875 153.93 72.4625C161.102 79.4375 164.688 88.0055 164.688 98.1666C164.688 108.328 161.102 116.896 153.93 123.871C146.758 130.846 137.948 134.333 127.5 134.333ZM127.5 227.333C112.802 227.333 98.9896 224.621 86.0625 219.196C73.1354 213.771 61.8906 206.408 52.3281 197.108C42.7656 187.808 35.1953 176.872 29.6172 164.3C24.0391 151.728 21.25 138.294 21.25 124C21.25 109.706 24.0391 96.2722 29.6172 83.7C35.1953 71.1277 42.7656 60.1916 52.3281 50.8916C61.8906 41.5916 73.1354 34.2291 86.0625 28.8041C98.9896 23.3791 112.802 20.6666 127.5 20.6666C142.198 20.6666 156.01 23.3791 168.938 28.8041C181.865 34.2291 193.109 41.5916 202.672 50.8916C212.234 60.1916 219.805 71.1277 225.383 83.7C230.961 96.2722 233.75 109.706 233.75 124C233.75 138.294 230.961 151.728 225.383 164.3C219.805 176.872 212.234 187.808 202.672 197.108C193.109 206.408 181.865 213.771 168.938 219.196C156.01 224.621 142.198 227.333 127.5 227.333Z" fill="#A0A7A5"/>
<path d="M127.5 21.1666C141.677 21.1666 155.021 23.7012 167.535 28.7672L168.744 29.2653C181.616 34.6673 192.808 41.9956 202.323 51.2496C211.541 60.2145 218.9 70.7083 224.399 82.734L224.926 83.903C230.474 96.4087 233.25 109.772 233.25 124C233.25 138.227 230.474 151.591 224.926 164.097C219.373 176.613 211.839 187.496 202.323 196.75C193.105 205.715 182.314 212.872 169.946 218.222L168.744 218.735C155.881 224.133 142.135 226.834 127.5 226.834C112.865 226.834 99.1187 224.133 86.2559 218.735C73.3835 213.333 62.1922 206.004 52.6768 196.75C43.4587 187.785 36.1001 177.291 30.6006 165.265L30.0742 164.097C24.5255 151.591 21.75 138.227 21.75 124C21.75 110.217 24.3552 97.2447 29.5625 85.0778L30.0742 83.903C35.6273 71.3872 43.1614 60.5038 52.6768 51.2496C61.8947 42.2848 72.6856 35.1268 85.0537 29.777L86.2559 29.2653C99.1187 23.8672 112.865 21.1666 127.5 21.1666ZM127.5 40.8336C104.191 40.8336 84.2715 48.6822 67.7705 64.3756L66.9873 65.1285C50.3342 81.3245 42.0001 100.958 42 124C42 133.899 43.6301 143.236 46.8926 152.007L47.2129 152.855C50.6867 161.864 55.5427 169.924 61.7803 177.03L62.085 177.377L62.4551 177.101C71.1626 170.625 80.8645 165.475 91.5635 161.651L92.6016 161.285C103.703 157.429 115.335 155.5 127.5 155.5C139.665 155.5 151.297 157.429 162.398 161.285C173.509 165.144 183.557 170.417 192.545 177.101L192.915 177.377L193.22 177.03C199.262 170.146 204.008 162.367 207.457 153.697L207.787 152.855C211.264 143.839 213 134.219 213 124C213 101.318 204.924 81.9389 188.787 65.8903L188.013 65.1285C171.36 48.9332 151.179 40.8336 127.5 40.8336ZM127.5 62.4996C137.502 62.4996 145.963 65.7295 152.913 72.1862L153.581 72.8209C160.654 79.7001 164.188 88.1382 164.188 98.1666C164.188 107.882 160.872 116.104 154.233 122.863L153.581 123.512C146.507 130.392 137.824 133.834 127.5 133.834C117.498 133.834 109.037 130.604 102.087 124.147L101.419 123.512C94.3456 116.633 90.8125 108.195 90.8125 98.1666C90.8125 88.4514 94.1284 80.229 100.767 73.4703L101.419 72.8209C108.493 65.9411 117.176 62.4996 127.5 62.4996Z" stroke="#A0A7A5"/>
</g>
<defs>
<filter id="filter0_d_138_27" x="17.25" y="20.6666" width="220.5" height="214.667" filterUnits="userSpaceOnUse" color-interpolation-filters="sRGB">
<feFlood flood-opacity="0" result="BackgroundImageFix"/>
<feColorMatrix in="SourceAlpha" type="matrix" values="0 0 0 0 0 0 0 0 0 0 0 0 0 0 0 0 0 0 127 0" result="hardAlpha"/>
<feOffset dy="4"/>
<feGaussianBlur stdDeviation="2"/>
<feComposite in2="hardAlpha" operator="out"/>
<feColorMatrix type="matrix" values="0 0 0 0 0 0 0 0 0 0 0 0 0 0 0 0 0 0 0.25 0"/>
<feBlend mode="normal" in2="BackgroundImageFix" result="effect1_dropShadow_138_27"/>
<feBlend mode="normal" in="SourceGraphic" in2="effect1_dropShadow_138_27" result="shape"/>
</filter>
</defs>
</svg>
