<svg width="100" height="100" viewBox="0 0 100 100" fill="none" xmlns="http://www.w3.org/2000/svg">
<g clip-path="url(#clip0_281_39)">
<path d="M59.375 0.75L63.125 1.58333L66.1667 2.66667L68.625 3.91667L70.5 5.25L71.9167 6.66667L72.9583 8.08333L73.625 9.45833L74.0417 10.7083L74.2083 11.7917L74.2917 12.625L74.25 13.1667V35.4167L74.0417 38.0417L73.5 40.3333L72.625 42.25L71.5417 43.8333L70.2917 45.125L68.9167 46.1667L67.4583 46.9583L66 47.5417L64.625 47.9583L63.375 48.25L62.2917 48.4167L61.4167 48.5H36.5417L33.6667 48.7083L31.2083 49.2917L29.125 50.2083L27.4167 51.3333L26.0417 52.6667L24.9167 54.125L24.0833 55.625L23.4583 57.1667L23.0417 58.625L22.75 59.9583L22.5833 61.0833L22.5 61.9583V74.7083H13.2083L12.3333 74.5833L11.1667 74.2917L9.83333 73.7917L8.375 73.0417L6.875 71.9583L5.375 70.4583L3.91667 68.5417L2.58333 66.0833L1.41667 63.0417L0.541667 59.375L-0.0416667 55L-0.25 49.875L-1.51247e-08 44.7917L0.666667 40.4583L1.66667 36.8333L3 33.875L4.5 31.5L6.16667 29.6667L7.91667 28.2917L9.66667 27.2917L11.3333 26.625L12.8333 26.2083L14.1667 26L15.1667 25.9583H15.8333L16.0833 26H50.0833V22.5417H25.75L25.7083 11.0833L25.625 9.54167L25.8333 8.125L26.2917 6.83333L27 5.66667L28.0417 4.58333L29.3333 3.625L30.9167 2.79167L32.75 2.04167L34.875 1.41667L37.2917 0.916667L39.9583 0.5L42.9167 0.25L46.125 0.0833333L49.625 0L54.9167 0.208333L59.375 0.75ZM33.125 9L32.1667 10.375L31.8333 12.0833L32.1667 13.7917L33.125 15.2083L34.5 16.125L36.2083 16.5L37.9167 16.125L39.2917 15.2083L40.25 13.7917L40.5833 12.0833L40.25 10.375L39.2917 9L37.9167 8.08333L36.2083 7.70833L34.5 8.08333L33.125 9ZM87.6667 25.4583L88.8333 25.7083L90.1667 26.2083L91.625 26.9583L93.125 28.0833L94.625 29.5417L96.0833 31.5L97.4167 33.9583L98.5833 37L99.4583 40.6667L100.042 45L100.25 50.125L100 55.25L99.3333 59.5833L98.3333 63.1667L97 66.125L95.5 68.5L93.8333 70.375L92.0833 71.75L90.3333 72.75L88.6667 73.4167L87.1667 73.7917L85.8333 74L84.8333 74.0833L84.1667 74.0417H49.9167V77.4583H74.25L74.2917 88.9583L74.375 90.4583L74.1667 91.875L73.7083 93.1667L73 94.375L71.9583 95.4167L70.6667 96.4167L69.0833 97.25L67.25 97.9583L65.125 98.5833L62.7083 99.125L60.0417 99.5L57.0833 99.7917L53.875 99.9583L50.375 100L45.0833 99.8333L40.625 99.25L36.875 98.4167L33.8333 97.375L31.375 96.125L29.5 94.75L28.0833 93.3333L27.0417 91.9167L26.375 90.5417L25.9583 89.2917L25.7917 88.25L25.7083 87.4167L25.75 86.875V64.625L25.9583 61.9583L26.5 59.7083L27.375 57.7917L28.4583 56.2083L29.7083 54.875L31.0833 53.875L32.5417 53.0417L34 52.4583L35.375 52.0417L36.625 51.7917L37.7083 51.625L38.5833 51.5417L39.125 51.5H63.4583L66.3333 51.2917L68.7917 50.7083L70.875 49.8333L72.5833 48.6667L73.9583 47.3333L75.0833 45.875L75.9167 44.375L76.5417 42.875L76.9583 41.4167L77.25 40.0833L77.4167 38.9167L77.5 38.0417V25.2917H86.2083L86.7917 25.3333L87.6667 25.4583ZM60.7083 84.8333L59.75 86.2083L59.4167 87.9167L59.75 89.625L60.7083 91L62.0833 91.9583L63.7917 92.2917L65.5 91.9583L66.875 91L67.8333 89.625L68.1667 87.9167L67.8333 86.2083L66.875 84.8333L65.5 83.875L63.7917 83.5417L62.0833 83.875L60.7083 84.8333Z" fill="#201C17"/>
</g>
<defs>
<clipPath id="clip0_281_39">
<rect width="100" height="100" fill="white"/>
</clipPath>
</defs>
</svg>
