<svg width="253" height="244" viewBox="0 0 253 244" fill="none" xmlns="http://www.w3.org/2000/svg">
<path d="M240.952 244H12.0476C8.85337 243.997 5.79086 242.772 3.53219 240.593C1.27351 238.415 0.00318947 235.462 0 232.381V11.619C0.00318947 8.53843 1.27351 5.58486 3.53219 3.40654C5.79086 1.22821 8.85337 0.00307601 12.0476 0H240.952C244.147 0.00307601 247.209 1.22821 249.468 3.40654C251.726 5.58486 252.997 8.53843 253 11.619V232.381C252.997 235.462 251.726 238.415 249.468 240.593C247.209 242.772 244.147 243.997 240.952 244ZM12.0476 11.619V232.381H240.952V11.619H12.0476Z" fill="url(#paint0_linear_106_94)"/>
<path d="M246.976 46.476H6.02381C4.4262 46.476 2.89402 45.8639 1.76433 44.7744C0.634649 43.6849 0 42.2072 0 40.6665C0 39.1257 0.634649 37.648 1.76433 36.5585C2.89402 35.469 4.4262 34.8569 6.02381 34.8569H246.976C248.574 34.8569 250.106 35.469 251.236 36.5585C252.365 37.648 253 39.1257 253 40.6665C253 42.2072 252.365 43.6849 251.236 44.7744C250.106 45.8639 248.574 46.476 246.976 46.476Z" fill="url(#paint1_linear_106_94)"/>
<path d="M42.1664 29.0478C45.4932 29.0478 48.1902 26.4467 48.1902 23.2382C48.1902 20.0297 45.4932 17.4287 42.1664 17.4287C38.8395 17.4287 36.1426 20.0297 36.1426 23.2382C36.1426 26.4467 38.8395 29.0478 42.1664 29.0478Z" fill="url(#paint2_linear_106_94)"/>
<path d="M66.2616 29.0478C69.5885 29.0478 72.2854 26.4467 72.2854 23.2382C72.2854 20.0297 69.5885 17.4287 66.2616 17.4287C62.9347 17.4287 60.2378 20.0297 60.2378 23.2382C60.2378 26.4467 62.9347 29.0478 66.2616 29.0478Z" fill="url(#paint3_linear_106_94)"/>
<path d="M90.3573 29.0478C93.6842 29.0478 96.3811 26.4467 96.3811 23.2382C96.3811 20.0297 93.6842 17.4287 90.3573 17.4287C87.0304 17.4287 84.3335 20.0297 84.3335 23.2382C84.3335 26.4467 87.0304 29.0478 90.3573 29.0478Z" fill="url(#paint4_linear_106_94)"/>
<path d="M144.572 197.524H108.429C103.636 197.524 99.0395 195.688 95.6504 192.419C92.2614 189.151 90.3574 184.718 90.3574 180.095C90.3574 175.473 92.2614 171.04 95.6504 167.771C99.0395 164.503 103.636 162.667 108.429 162.667H144.572C149.365 162.667 153.961 164.503 157.35 167.771C160.739 171.04 162.643 175.473 162.643 180.095C162.643 184.718 160.739 189.151 157.35 192.419C153.961 195.688 149.365 197.524 144.572 197.524ZM108.429 174.286C106.831 174.286 105.299 174.898 104.169 175.987C103.04 177.077 102.405 178.555 102.405 180.095C102.405 181.636 103.04 183.114 104.169 184.203C105.299 185.293 106.831 185.905 108.429 185.905H144.572C146.169 185.905 147.702 185.293 148.831 184.203C149.961 183.114 150.596 181.636 150.596 180.095C150.596 178.555 149.961 177.077 148.831 175.987C147.702 174.898 146.169 174.286 144.572 174.286H108.429Z" fill="url(#paint5_linear_106_94)"/>
<path d="M126.5 220.762C120.112 220.756 113.987 218.306 109.469 213.949C104.952 209.592 102.411 203.685 102.405 197.524V191.714C102.405 190.174 103.039 188.696 104.169 187.606C105.299 186.517 106.831 185.905 108.429 185.905H144.571C146.169 185.905 147.701 186.517 148.831 187.606C149.961 188.696 150.595 190.174 150.595 191.714V197.524C150.589 203.685 148.048 209.592 143.531 213.949C139.014 218.306 132.889 220.756 126.5 220.762ZM114.452 197.524C114.452 200.605 115.722 203.561 117.981 205.74C120.24 207.919 123.305 209.143 126.5 209.143C129.695 209.143 132.76 207.919 135.019 205.74C137.278 203.561 138.548 200.605 138.548 197.524H114.452Z" fill="url(#paint6_linear_106_94)"/>
<path d="M144.571 174.286H108.428C106.831 174.286 105.299 173.674 104.169 172.584C103.039 171.495 102.405 170.017 102.405 168.476V166.036C102.349 163.47 101.659 160.954 100.393 158.697C99.1261 156.439 97.3191 154.506 95.1219 153.058C85.7233 146.629 78.6926 137.48 75.0495 126.938C71.4064 116.395 71.3405 105.008 74.8612 94.4266C78.3819 83.8456 85.3062 74.6214 94.6298 68.0919C103.953 61.5625 115.191 58.0673 126.714 58.1135C138.236 58.1596 149.443 61.7447 158.71 68.3486C167.977 74.9525 174.822 84.2319 178.251 94.8408C181.681 105.45 181.517 116.836 177.783 127.349C174.049 137.862 166.94 146.955 157.486 153.308L157.468 153.319C155.343 154.746 153.608 156.648 152.411 158.863C151.214 161.078 150.591 163.539 150.595 166.036V168.476C150.595 170.017 149.961 171.495 148.831 172.584C147.701 173.674 146.169 174.286 144.571 174.286ZM114.223 162.667H138.764C139.25 158.893 140.554 155.26 142.592 152.005C144.631 148.749 147.358 145.945 150.595 143.774C157.944 138.834 163.47 131.765 166.372 123.591C169.274 115.418 169.401 106.565 166.734 98.3175C164.067 90.0699 158.745 82.8561 151.54 77.7224C144.335 72.5887 135.621 69.8021 126.663 69.7667C117.706 69.7313 108.969 72.4489 101.72 77.5254C94.472 82.602 89.089 89.7734 86.3519 97.9997C83.6149 106.226 83.6662 115.079 86.4985 123.275C89.3308 131.472 94.7967 138.584 102.103 143.582C105.374 145.79 108.138 148.624 110.222 151.907C112.306 155.191 113.672 158.854 114.223 162.667Z" fill="url(#paint7_linear_106_94)"/>
<path d="M126.5 174.286C124.902 174.286 123.37 173.674 122.24 172.584C121.111 171.495 120.476 170.017 120.476 168.476V136.024L110.193 126.107C109.096 125.012 108.489 123.544 108.503 122.021C108.516 120.498 109.15 119.041 110.267 117.964C111.384 116.886 112.894 116.275 114.474 116.262C116.053 116.249 117.575 116.835 118.711 117.893L130.759 129.512C131.888 130.601 132.523 132.078 132.524 133.619V168.476C132.524 170.017 131.889 171.495 130.759 172.584C129.63 173.674 128.097 174.286 126.5 174.286Z" fill="url(#paint8_linear_106_94)"/>
<path d="M126.5 139.429C125.309 139.428 124.144 139.088 123.154 138.449C122.164 137.811 121.392 136.904 120.936 135.842C120.48 134.781 120.361 133.613 120.593 132.486C120.826 131.359 121.399 130.324 122.241 129.512L134.289 117.893C135.425 116.835 136.947 116.249 138.526 116.262C140.105 116.275 141.616 116.886 142.733 117.964C143.85 119.041 144.484 120.498 144.497 122.021C144.511 123.544 143.904 125.012 142.807 126.107L130.759 137.726C130.2 138.267 129.536 138.695 128.806 138.987C128.075 139.279 127.291 139.429 126.5 139.429Z" fill="url(#paint9_linear_106_94)"/>
<path d="M54.214 116.19H42.1664C40.5688 116.19 39.0366 115.578 37.9069 114.489C36.7772 113.399 36.1426 111.922 36.1426 110.381C36.1426 108.84 36.7772 107.362 37.9069 106.273C39.0366 105.183 40.5688 104.571 42.1664 104.571H54.214C55.8116 104.571 57.3438 105.183 58.4735 106.273C59.6032 107.362 60.2378 108.84 60.2378 110.381C60.2378 111.922 59.6032 113.399 58.4735 114.489C57.3438 115.578 55.8116 116.19 54.214 116.19Z" fill="url(#paint10_linear_106_94)"/>
<path d="M67.1536 76.3719C65.925 76.371 64.7264 76.0059 63.72 75.3262L53.835 68.6975C53.1855 68.2619 52.6314 67.7072 52.2042 67.065C51.777 66.4229 51.4852 65.7058 51.3454 64.9549C51.2055 64.204 51.2204 63.4338 51.3892 62.6884C51.558 61.9431 51.8773 61.237 52.329 60.6107C52.7807 59.9843 53.3559 59.4499 54.0217 59.0379C54.6876 58.626 55.431 58.3445 56.2097 58.2097C56.9883 58.0748 57.7869 58.0891 58.5597 58.2519C59.3326 58.4147 60.0647 58.7227 60.7141 59.1583L70.6052 65.7928C71.6588 66.4994 72.4509 67.512 72.866 68.6831C73.2811 69.8543 73.2976 71.1226 72.913 72.3034C72.5285 73.4842 71.7629 74.5156 70.728 75.2475C69.6931 75.9793 68.4429 76.3733 67.1596 76.3719H67.1536Z" fill="url(#paint11_linear_106_94)"/>
<path d="M57.2804 162.643C55.9987 162.643 54.7506 162.248 53.7175 161.517C52.6844 160.785 51.9202 159.755 51.5359 158.576C51.1516 157.397 51.1674 156.13 51.5808 154.96C51.9942 153.79 52.7838 152.778 53.8348 152.07L63.7199 145.43C65.0315 144.549 66.6521 144.207 68.2252 144.479C69.7983 144.751 71.195 145.614 72.108 146.879C73.0211 148.144 73.3756 149.707 73.0938 151.224C72.8119 152.741 71.9167 154.088 70.6051 154.969L60.714 161.603C59.7076 162.283 58.509 162.642 57.2804 162.643Z" fill="url(#paint12_linear_106_94)"/>
<path d="M210.834 116.19H198.786C197.188 116.19 195.656 115.578 194.527 114.489C193.397 113.399 192.762 111.922 192.762 110.381C192.762 108.84 193.397 107.362 194.527 106.273C195.656 105.183 197.188 104.571 198.786 104.571H210.834C212.431 104.571 213.963 105.183 215.093 106.273C216.223 107.362 216.857 108.84 216.857 110.381C216.857 111.922 216.223 113.399 215.093 114.489C213.963 115.578 212.431 116.19 210.834 116.19Z" fill="url(#paint13_linear_106_94)"/>
<path d="M185.847 76.3719C184.564 76.3727 183.315 75.9789 182.281 75.2478C181.247 74.5167 180.482 73.4865 180.097 72.307C179.712 71.1275 179.727 69.8603 180.14 68.6898C180.554 67.5192 181.343 66.5064 182.395 65.7986L192.286 59.1583C192.935 58.7227 193.667 58.4147 194.44 58.2519C195.213 58.0891 196.012 58.0748 196.79 58.2097C197.569 58.3445 198.313 58.626 198.978 59.0379C199.644 59.4499 200.219 59.9843 200.671 60.6107C201.123 61.237 201.442 61.9431 201.611 62.6884C201.78 63.4338 201.795 64.204 201.655 64.9549C201.515 65.7058 201.223 66.4229 200.796 67.065C200.369 67.7072 199.815 68.2619 199.165 68.6975L189.28 75.332C188.273 76.0097 187.074 76.3727 185.847 76.3719Z" fill="url(#paint14_linear_106_94)"/>
<path d="M195.72 162.643C194.491 162.642 193.292 162.277 192.286 161.598L182.401 154.969C181.751 154.533 181.197 153.979 180.77 153.337C180.343 152.694 180.051 151.977 179.911 151.226C179.771 150.475 179.786 149.705 179.955 148.96C180.124 148.215 180.443 147.509 180.895 146.882C181.347 146.256 181.922 145.721 182.588 145.309C183.254 144.897 183.997 144.616 184.776 144.481C185.554 144.346 186.353 144.361 187.126 144.523C187.899 144.686 188.631 144.994 189.28 145.43L199.171 152.064C200.225 152.771 201.017 153.784 201.432 154.955C201.847 156.126 201.864 157.394 201.479 158.575C201.094 159.756 200.329 160.787 199.294 161.519C198.259 162.251 197.003 162.645 195.72 162.643Z" fill="url(#paint15_linear_106_94)"/>
<defs>
<linearGradient id="paint0_linear_106_94" x1="-5.01783" y1="248.839" x2="251.183" y2="-16.8111" gradientUnits="userSpaceOnUse">
<stop offset="0.014" stop-color="#4279BD"/>
<stop offset="0.184" stop-color="#3F83BA"/>
<stop offset="0.476" stop-color="#389FB0"/>
<stop offset="0.852" stop-color="#2CCBA2"/>
<stop offset="0.913" stop-color="#2AD39F"/>
</linearGradient>
<linearGradient id="paint1_linear_106_94" x1="-47.1845" y1="208.172" x2="209.016" y2="-57.4779" gradientUnits="userSpaceOnUse">
<stop offset="0.014" stop-color="#4279BD"/>
<stop offset="0.184" stop-color="#3F83BA"/>
<stop offset="0.476" stop-color="#389FB0"/>
<stop offset="0.852" stop-color="#2CCBA2"/>
<stop offset="0.913" stop-color="#2AD39F"/>
</linearGradient>
<linearGradient id="paint2_linear_106_94" x1="-98.3992" y1="158.798" x2="157.807" y2="-106.853" gradientUnits="userSpaceOnUse">
<stop offset="0.014" stop-color="#4279BD"/>
<stop offset="0.184" stop-color="#3F83BA"/>
<stop offset="0.476" stop-color="#389FB0"/>
<stop offset="0.852" stop-color="#2CCBA2"/>
<stop offset="0.913" stop-color="#2AD39F"/>
</linearGradient>
<linearGradient id="paint3_linear_106_94" x1="-86.3396" y1="170.411" x2="169.861" y2="-95.2395" gradientUnits="userSpaceOnUse">
<stop offset="0.014" stop-color="#4279BD"/>
<stop offset="0.184" stop-color="#3F83BA"/>
<stop offset="0.476" stop-color="#389FB0"/>
<stop offset="0.852" stop-color="#2CCBA2"/>
<stop offset="0.913" stop-color="#2AD39F"/>
</linearGradient>
<linearGradient id="paint4_linear_106_94" x1="-74.2915" y1="182.03" x2="181.909" y2="-83.6205" gradientUnits="userSpaceOnUse">
<stop offset="0.014" stop-color="#4279BD"/>
<stop offset="0.184" stop-color="#3F83BA"/>
<stop offset="0.476" stop-color="#389FB0"/>
<stop offset="0.852" stop-color="#2CCBA2"/>
<stop offset="0.913" stop-color="#2AD39F"/>
</linearGradient>
<linearGradient id="paint5_linear_106_94" x1="25.1015" y1="277.887" x2="281.302" y2="12.2366" gradientUnits="userSpaceOnUse">
<stop offset="0.014" stop-color="#4279BD"/>
<stop offset="0.184" stop-color="#3F83BA"/>
<stop offset="0.476" stop-color="#389FB0"/>
<stop offset="0.852" stop-color="#2CCBA2"/>
<stop offset="0.913" stop-color="#2AD39F"/>
</linearGradient>
<linearGradient id="paint6_linear_106_94" x1="34.4984" y1="286.95" x2="290.699" y2="21.2994" gradientUnits="userSpaceOnUse">
<stop offset="0.014" stop-color="#4279BD"/>
<stop offset="0.184" stop-color="#3F83BA"/>
<stop offset="0.476" stop-color="#389FB0"/>
<stop offset="0.852" stop-color="#2CCBA2"/>
<stop offset="0.913" stop-color="#2AD39F"/>
</linearGradient>
<linearGradient id="paint7_linear_106_94" x1="-8.5057" y1="245.482" x2="247.701" y2="-20.1691" gradientUnits="userSpaceOnUse">
<stop offset="0.014" stop-color="#4279BD"/>
<stop offset="0.184" stop-color="#3F83BA"/>
<stop offset="0.476" stop-color="#389FB0"/>
<stop offset="0.852" stop-color="#2CCBA2"/>
<stop offset="0.913" stop-color="#2AD39F"/>
</linearGradient>
<linearGradient id="paint8_linear_106_94" x1="4.01771" y1="257.554" x2="260.218" y2="-8.09672" gradientUnits="userSpaceOnUse">
<stop offset="0.014" stop-color="#4279BD"/>
<stop offset="0.184" stop-color="#3F83BA"/>
<stop offset="0.476" stop-color="#389FB0"/>
<stop offset="0.852" stop-color="#2CCBA2"/>
<stop offset="0.913" stop-color="#2AD39F"/>
</linearGradient>
<linearGradient id="paint9_linear_106_94" x1="1.00602" y1="254.649" x2="257.206" y2="-11.0015" gradientUnits="userSpaceOnUse">
<stop offset="0.014" stop-color="#4279BD"/>
<stop offset="0.184" stop-color="#3F83BA"/>
<stop offset="0.476" stop-color="#389FB0"/>
<stop offset="0.913" stop-color="#00F0B1"/>
</linearGradient>
<linearGradient id="paint10_linear_106_94" x1="-50.1967" y1="205.268" x2="206.004" y2="-60.3826" gradientUnits="userSpaceOnUse">
<stop offset="0.014" stop-color="#4279BD"/>
<stop offset="0.184" stop-color="#3F83BA"/>
<stop offset="0.476" stop-color="#389FB0"/>
<stop offset="0.852" stop-color="#2CCBA2"/>
<stop offset="0.913" stop-color="#2AD39F"/>
</linearGradient>
<linearGradient id="paint11_linear_106_94" x1="-65.5509" y1="190.465" x2="190.655" y2="-75.1855" gradientUnits="userSpaceOnUse">
<stop offset="0.014" stop-color="#4279BD"/>
<stop offset="0.184" stop-color="#3F83BA"/>
<stop offset="0.476" stop-color="#389FB0"/>
<stop offset="0.852" stop-color="#2CCBA2"/>
<stop offset="0.913" stop-color="#2AD39F"/>
</linearGradient>
<linearGradient id="paint12_linear_106_94" x1="-20.8243" y1="233.601" x2="235.382" y2="-32.0497" gradientUnits="userSpaceOnUse">
<stop offset="0.014" stop-color="#4279BD"/>
<stop offset="0.184" stop-color="#3F83BA"/>
<stop offset="0.476" stop-color="#389FB0"/>
<stop offset="0.852" stop-color="#2CCBA2"/>
<stop offset="0.913" stop-color="#2AD39F"/>
</linearGradient>
<linearGradient id="paint13_linear_106_94" x1="28.1134" y1="280.792" x2="284.314" y2="15.1412" gradientUnits="userSpaceOnUse">
<stop offset="0.014" stop-color="#4279BD"/>
<stop offset="0.184" stop-color="#3F83BA"/>
<stop offset="0.476" stop-color="#389FB0"/>
<stop offset="0.852" stop-color="#2CCBA2"/>
<stop offset="0.913" stop-color="#2AD39F"/>
</linearGradient>
<linearGradient id="paint14_linear_106_94" x1="-1.26508" y1="252.459" x2="254.935" y2="-13.1918" gradientUnits="userSpaceOnUse">
<stop offset="0.014" stop-color="#4279BD"/>
<stop offset="0.184" stop-color="#3F83BA"/>
<stop offset="0.476" stop-color="#389FB0"/>
<stop offset="0.852" stop-color="#2CCBA2"/>
<stop offset="0.913" stop-color="#2AD39F"/>
</linearGradient>
<linearGradient id="paint15_linear_106_94" x1="43.4617" y1="295.6" x2="299.662" y2="29.944" gradientUnits="userSpaceOnUse">
<stop offset="0.014" stop-color="#4279BD"/>
<stop offset="0.184" stop-color="#3F83BA"/>
<stop offset="0.476" stop-color="#389FB0"/>
<stop offset="0.852" stop-color="#2CCBA2"/>
<stop offset="0.913" stop-color="#2AD39F"/>
</linearGradient>
</defs>
</svg>
