<svg width="55" height="50" viewBox="0 0 55 50" fill="none" xmlns="http://www.w3.org/2000/svg">
<path d="M33.0551 20.8333C31.163 20.8333 29.6356 19.4375 29.6356 17.7083V7.29163C29.6356 5.56246 31.163 4.16663 33.0551 4.16663C34.9472 4.16663 36.4746 5.56246 36.4746 7.29163V17.7083C36.4746 19.4375 34.9472 20.8333 33.0551 20.8333Z" stroke="#FD9E02" stroke-width="4" stroke-linecap="round" stroke-linejoin="round"/>
<path d="M46.7331 20.8333H43.3136V17.7083C43.3136 15.9791 44.8409 14.5833 46.7331 14.5833C48.6252 14.5833 50.1525 15.9791 50.1525 17.7083C50.1525 19.4375 48.6252 20.8333 46.7331 20.8333Z" stroke="#FD9E02" stroke-width="4" stroke-linecap="round" stroke-linejoin="round"/>
<path d="M21.6568 29.1666C23.5489 29.1666 25.0763 30.5625 25.0763 32.2916V42.7083C25.0763 44.4375 23.5489 45.8333 21.6568 45.8333C19.7647 45.8333 18.2373 44.4375 18.2373 42.7083V32.2916C18.2373 30.5625 19.7647 29.1666 21.6568 29.1666Z" stroke="#FD9E02" stroke-width="4" stroke-linecap="round" stroke-linejoin="round"/>
<path d="M7.97882 29.1666H11.3983V32.2916C11.3983 34.0208 9.87094 35.4166 7.97882 35.4166C6.0867 35.4166 4.55933 34.0208 4.55933 32.2916C4.55933 30.5625 6.0867 29.1666 7.97882 29.1666Z" stroke="#FD9E02" stroke-width="4" stroke-linecap="round" stroke-linejoin="round"/>
<path d="M31.9153 30.2083C31.9153 28.4791 33.4426 27.0833 35.3347 27.0833H46.7331C48.6252 27.0833 50.1525 28.4791 50.1525 30.2083C50.1525 31.9375 48.6252 33.3333 46.7331 33.3333H35.3347C33.4426 33.3333 31.9153 31.9375 31.9153 30.2083Z" stroke="#FD9E02" stroke-width="4" stroke-linecap="round" stroke-linejoin="round"/>
<path d="M35.3347 39.5833H31.9153V42.7083C31.9153 44.4375 33.4426 45.8333 35.3347 45.8333C37.2269 45.8333 38.7542 44.4375 38.7542 42.7083C38.7542 40.9791 37.2269 39.5833 35.3347 39.5833Z" stroke="#FD9E02" stroke-width="4" stroke-linecap="round" stroke-linejoin="round"/>
<path d="M22.7966 19.7916C22.7966 18.0625 21.2692 16.6666 19.3771 16.6666H7.97882C6.0867 16.6666 4.55933 18.0625 4.55933 19.7916C4.55933 21.5208 6.0867 22.9166 7.97882 22.9166H19.3771C21.2692 22.9166 22.7966 21.5208 22.7966 19.7916Z" stroke="#FD9E02" stroke-width="4" stroke-linecap="round" stroke-linejoin="round"/>
<path d="M19.3771 10.4166H22.7966V7.29163C22.7966 5.56246 21.2692 4.16663 19.3771 4.16663C17.485 4.16663 15.9576 5.56246 15.9576 7.29163C15.9576 9.02079 17.485 10.4166 19.3771 10.4166Z" stroke="#FD9E02" stroke-width="4" stroke-linecap="round" stroke-linejoin="round"/>
</svg>
