<svg width="60" height="63" viewBox="0 0 60 63" fill="none" xmlns="http://www.w3.org/2000/svg">
<g filter="url(#filter0_d_30_95)">
<path d="M14.625 42.75C16.75 41.125 19.125 39.8438 21.75 38.9062C24.375 37.9688 27.125 37.5 30 37.5C32.875 37.5 35.625 37.9688 38.25 38.9062C40.875 39.8438 43.25 41.125 45.375 42.75C46.8333 41.0417 47.9688 39.1042 48.7812 36.9375C49.5938 34.7708 50 32.4583 50 30C50 24.4583 48.0521 19.7396 44.1562 15.8438C40.2604 11.9479 35.5417 10 30 10C24.4583 10 19.7396 11.9479 15.8438 15.8438C11.9479 19.7396 10 24.4583 10 30C10 32.4583 10.4062 34.7708 11.2188 36.9375C12.0312 39.1042 13.1667 41.0417 14.625 42.75ZM30 32.5C27.5417 32.5 25.4688 31.6562 23.7812 29.9688C22.0938 28.2812 21.25 26.2083 21.25 23.75C21.25 21.2917 22.0938 19.2188 23.7812 17.5313C25.4688 15.8438 27.5417 15 30 15C32.4583 15 34.5312 15.8438 36.2188 17.5313C37.9062 19.2188 38.75 21.2917 38.75 23.75C38.75 26.2083 37.9062 28.2812 36.2188 29.9688C34.5312 31.6562 32.4583 32.5 30 32.5ZM30 55C26.5417 55 23.2917 54.3438 20.25 53.0312C17.2083 51.7188 14.5625 49.9375 12.3125 47.6875C10.0625 45.4375 8.28125 42.7917 6.96875 39.75C5.65625 36.7083 5 33.4583 5 30C5 26.5417 5.65625 23.2917 6.96875 20.25C8.28125 17.2083 10.0625 14.5625 12.3125 12.3125C14.5625 10.0625 17.2083 8.28125 20.25 6.96875C23.2917 5.65625 26.5417 5 30 5C33.4583 5 36.7083 5.65625 39.75 6.96875C42.7917 8.28125 45.4375 10.0625 47.6875 12.3125C49.9375 14.5625 51.7188 17.2083 53.0312 20.25C54.3438 23.2917 55 26.5417 55 30C55 33.4583 54.3438 36.7083 53.0312 39.75C51.7188 42.7917 49.9375 45.4375 47.6875 47.6875C45.4375 49.9375 42.7917 51.7188 39.75 53.0312C36.7083 54.3438 33.4583 55 30 55Z" fill="#FD9E02"/>
<path d="M30 5.5C33.1811 5.5 36.1768 6.06546 38.9912 7.19434L39.5518 7.42773C42.3511 8.63565 44.8047 10.2458 46.916 12.2578L47.334 12.666C49.3997 14.7317 51.0636 17.1393 52.3252 19.8926L52.5723 20.4482C53.8565 23.4246 54.5 26.6068 54.5 30C54.5 33.1811 53.9345 36.1768 52.8057 38.9912L52.5723 39.5518C51.3644 42.3511 49.7542 44.8047 47.7422 46.916L47.334 47.334C45.2683 49.3997 42.8607 51.0636 40.1074 52.3252L39.5518 52.5723C36.5754 53.8565 33.3932 54.5 30 54.5C26.8189 54.5 23.8232 53.9345 21.0088 52.8057L20.4482 52.5723C17.6489 51.3644 15.1953 49.7542 13.084 47.7422L12.666 47.334C10.6003 45.2683 8.93641 42.8607 7.6748 40.1074L7.42773 39.5518C6.14346 36.5754 5.5 33.3932 5.5 30C5.5 26.8189 6.06546 23.8232 7.19434 21.0088L7.42773 20.4482C8.71624 17.4622 10.4625 14.8695 12.666 12.666C14.7317 10.6003 17.1393 8.93641 19.8926 7.6748L20.4482 7.42773C23.4246 6.14346 26.6068 5.5 30 5.5ZM30 9.5C24.3266 9.5 19.4804 11.5 15.4902 15.4902C11.5 19.4804 9.5 24.3266 9.5 30C9.5 32.3575 9.86501 34.5901 10.5986 36.6943L10.751 37.1133C11.5832 39.3326 12.748 41.3204 14.2451 43.0742L14.5527 43.4346L14.9287 43.1475C16.8807 41.6547 19.0496 40.4564 21.4375 39.5537L21.918 39.377C24.4873 38.4593 27.1805 38 30 38C32.8195 38 35.5127 38.4593 38.082 39.377C40.6603 40.2978 42.9891 41.5552 45.0713 43.1475L45.4473 43.4346L45.7549 43.0742C47.1586 41.4299 48.2706 39.5801 49.0898 37.5264L49.249 37.1133C50.0839 34.887 50.5 32.5145 50.5 30C50.5 24.504 48.6228 19.7845 44.8779 15.8672L44.5098 15.4902C40.5196 11.5 35.6734 9.5 30 9.5ZM30 15.5C32.3302 15.5 34.2746 16.2941 35.8652 17.8848C37.4559 19.4754 38.25 21.4198 38.25 23.75C38.25 26.0802 37.4559 28.0246 35.8652 29.6152C34.2746 31.2059 32.3302 32 30 32C27.6698 32 25.7254 31.2059 24.1348 29.6152C22.5441 28.0246 21.75 26.0802 21.75 23.75C21.75 21.4198 22.5441 19.4754 24.1348 17.8848C25.7254 16.2941 27.6698 15.5 30 15.5Z" stroke="#FFA851"/>
</g>
<defs>
<filter id="filter0_d_30_95" x="1" y="5" width="58" height="58" filterUnits="userSpaceOnUse" color-interpolation-filters="sRGB">
<feFlood flood-opacity="0" result="BackgroundImageFix"/>
<feColorMatrix in="SourceAlpha" type="matrix" values="0 0 0 0 0 0 0 0 0 0 0 0 0 0 0 0 0 0 127 0" result="hardAlpha"/>
<feOffset dy="4"/>
<feGaussianBlur stdDeviation="2"/>
<feComposite in2="hardAlpha" operator="out"/>
<feColorMatrix type="matrix" values="0 0 0 0 0 0 0 0 0 0 0 0 0 0 0 0 0 0 0.25 0"/>
<feBlend mode="normal" in2="BackgroundImageFix" result="effect1_dropShadow_30_95"/>
<feBlend mode="normal" in="SourceGraphic" in2="effect1_dropShadow_30_95" result="shape"/>
</filter>
</defs>
</svg>
