<svg width="272" height="257" viewBox="0 0 272 257" fill="none" xmlns="http://www.w3.org/2000/svg">
<path d="M251.582 22.1746H189.78L219.679 35.0506C222.969 36.4671 225.012 39.3154 225.012 42.4827C225.013 45.6505 222.969 48.4983 219.679 49.9153L217.144 51.0075V90.4854C217.144 93.4165 214.385 95.7925 210.982 95.7925C207.58 95.7925 204.82 93.4165 204.82 90.4854V56.3146L198.816 58.9002V93.6898C198.816 99.7272 193.85 105 187.008 106.229C170.085 109.267 153.042 110.786 136 110.786C118.957 110.786 101.915 109.267 84.991 106.229C78.149 105.001 73.1832 99.7272 73.1832 93.6898V58.9002L52.3199 49.9158C49.0301 48.4988 46.9862 45.6505 46.9862 42.4827C46.9862 39.3149 49.0301 36.4671 52.3199 35.0506L82.2188 22.1746H20.4171C9.15891 22.1746 0 30.063 0 39.7596V176.956C0 174.025 2.75864 171.648 6.16181 171.648H265.838C269.24 171.648 271.999 174.025 271.999 176.956V39.7596C271.999 30.063 262.84 22.1746 251.582 22.1746ZM65.4723 159.306H53.1487C49.7455 159.306 46.9869 156.93 46.9869 153.999C46.9869 151.069 49.7455 148.692 53.1487 148.692H65.4723C68.8754 148.692 71.6341 151.069 71.6341 153.999C71.6341 156.93 68.8748 159.306 65.4723 159.306ZM65.4723 133.763H53.1487C49.7455 133.763 46.9869 131.387 46.9869 128.456C46.9869 125.525 49.7455 123.149 53.1487 123.149H65.4723C68.8754 123.149 71.6341 125.525 71.6341 128.456C71.6341 131.387 68.8748 133.763 65.4723 133.763ZM93.2078 123.149H154.826C158.228 123.149 160.988 125.525 160.988 128.456C160.988 131.387 158.228 133.763 154.826 133.763H93.2078C89.8046 133.763 87.046 131.387 87.046 128.456C87.046 125.525 89.8046 123.149 93.2078 123.149ZM218.851 159.306H93.2078C89.8046 159.306 87.046 156.93 87.046 153.999C87.046 151.069 89.8046 148.692 93.2078 148.692H218.851C222.253 148.692 225.013 151.069 225.013 153.999C225.013 156.93 222.253 159.306 218.851 159.306Z" fill="url(#paint0_linear_106_93)"/>
<path d="M101.735 207.175V246.386H79.7932C76.39 246.386 73.6313 248.762 73.6313 251.693C73.6313 254.623 76.39 257 79.7932 257H192.207C195.61 257 198.369 254.623 198.369 251.693C198.369 248.762 195.61 246.386 192.207 246.386H170.266V207.175H101.735Z" fill="#5D6D88"/>
<path d="M265.838 171.649H6.16181C2.75864 171.649 0 174.026 0 176.956V189.59C0 199.287 9.15891 207.176 20.4171 207.176H101.735H170.265H251.583C262.841 207.176 272 199.287 272 189.59V176.956C271.999 174.025 269.24 171.649 265.838 171.649Z" fill="#4A5973"/>
<path d="M140.314 84.0942C138.963 84.6759 137.481 84.9667 136 84.9667C134.518 84.9667 133.036 84.6759 131.685 84.0942L73.1836 58.9009V93.6905C73.1836 99.7279 78.1494 105.001 84.9915 106.23C101.915 109.268 118.958 110.787 136 110.787C153.042 110.787 170.085 109.267 187.009 106.23C193.851 105.002 198.816 99.7279 198.816 93.6905V58.9009L140.314 84.0942Z" fill="#646A9E"/>
<path d="M52.3205 35.0507C49.0307 36.4672 46.9868 39.315 46.9868 42.4828C46.9868 45.6506 49.0301 48.4989 52.3205 49.9159L73.1837 58.9003L131.685 84.0936C133.036 84.6753 134.518 84.9661 136 84.9661C137.482 84.9661 138.964 84.6753 140.314 84.0936L198.816 58.9003L204.82 56.3147V90.4855C204.82 93.4166 207.58 95.7926 210.982 95.7926C214.385 95.7926 217.144 93.4166 217.144 90.4855V51.0076L219.679 49.9154C222.969 48.4984 225.013 45.6501 225.012 42.4828C225.012 39.315 222.969 36.4672 219.679 35.0507L189.78 22.1747L140.314 0.872487C137.613 -0.290829 134.387 -0.290829 131.685 0.872487L82.2194 22.1747L52.3205 35.0507Z" fill="#73839E"/>
<path d="M93.2078 133.763H154.826C158.228 133.763 160.988 131.387 160.988 128.456C160.988 125.525 158.228 123.149 154.826 123.149H93.2078C89.8046 123.149 87.0459 125.525 87.0459 128.456C87.0459 131.387 89.8046 133.763 93.2078 133.763ZM65.4722 123.149H53.1486C49.7455 123.149 46.9868 125.525 46.9868 128.456C46.9868 131.387 49.7455 133.763 53.1486 133.763H65.4722C68.8754 133.763 71.634 131.387 71.634 128.456C71.634 125.525 68.8748 123.149 65.4722 123.149ZM218.851 148.692H93.2078C89.8046 148.692 87.0459 151.069 87.0459 153.999C87.0459 156.93 89.8046 159.306 93.2078 159.306H218.851C222.253 159.306 225.013 156.93 225.013 153.999C225.013 151.069 222.253 148.692 218.851 148.692ZM65.4722 148.692H53.1486C49.7455 148.692 46.9868 151.069 46.9868 153.999C46.9868 156.93 49.7455 159.306 53.1486 159.306H65.4722C68.8754 159.306 71.634 156.93 71.634 153.999C71.634 151.069 68.8748 148.692 65.4722 148.692Z" fill="#EBA635"/>
<defs>
<linearGradient id="paint0_linear_106_93" x1="136" y1="22.1746" x2="136" y2="176.956" gradientUnits="userSpaceOnUse">
<stop stop-color="#00F0B1"/>
<stop offset="1" stop-color="#4279BD"/>
</linearGradient>
</defs>
</svg>
