<svg width="208" height="192" viewBox="0 0 208 192" fill="none" xmlns="http://www.w3.org/2000/svg">
<path fill-rule="evenodd" clip-rule="evenodd" d="M207.999 183.809C207.999 185.928 207.086 187.961 205.461 189.46C203.836 190.959 201.631 191.801 199.333 191.801H8.66664C6.3681 191.801 4.16371 190.959 2.5384 189.46C0.91309 187.961 0 185.928 0 183.809V7.99169C0 5.87216 0.91309 3.83945 2.5384 2.34071C4.16371 0.84198 6.3681 0 8.66664 0C10.9652 0 13.1696 0.84198 14.7949 2.34071C16.4202 3.83945 17.3333 5.87216 17.3333 7.99169V175.817H199.333C201.631 175.817 203.836 176.659 205.461 178.158C207.086 179.657 207.999 181.689 207.999 183.809Z" fill="url(#paint0_linear_107_113)"/>
<path fill-rule="evenodd" clip-rule="evenodd" d="M204.533 14.385L181.827 30.1207C181.97 30.7509 182.029 31.3952 182 32.0387C181.986 36.2739 180.156 40.332 176.908 43.3267C173.66 46.3214 169.259 48.0094 164.667 48.0221C164.292 48.0374 163.917 48.0132 163.549 47.9502L154.535 60.4092L145.522 72.8683C146.735 75.05 147.351 77.4715 147.333 79.9169C147.329 83.9832 145.64 87.8942 142.611 90.8493C139.582 93.8044 135.442 95.5799 131.04 95.8124L118.473 118.988C119.958 121.066 120.896 123.434 121.213 125.905C121.53 128.376 121.217 130.88 120.299 133.22C119.382 135.56 117.884 137.669 115.926 139.381C113.969 141.093 111.604 142.36 109.022 143.081C106.44 143.801 103.711 143.957 101.052 143.533C98.393 143.11 95.8781 142.121 93.7072 140.643C91.5363 139.166 89.7695 137.242 88.5472 135.023C87.3249 132.805 86.6811 130.355 86.6668 127.867V127.627L69.0736 117.893C67.5396 118.693 65.8669 119.268 64.1336 119.572L51.567 154.4C50.9856 155.987 49.8779 157.366 48.4004 158.341C46.923 159.316 45.1506 159.838 43.3337 159.834C42.3944 159.812 41.4621 159.678 40.5603 159.434C38.3892 158.743 36.6 157.292 35.5786 155.394C34.5571 153.497 34.3854 151.306 35.1004 149.293L47.667 114.465C45.812 112.525 44.4951 110.2 43.8292 107.688C43.1634 105.176 43.1686 102.552 43.8443 100.042C44.52 97.5321 45.8461 95.2109 47.7087 93.2775C49.5713 91.3442 51.9149 89.8565 54.5382 88.9421C57.1615 88.0277 59.9863 87.7139 62.7701 88.0277C65.5538 88.3415 68.2135 89.2735 70.5207 90.7436C72.8279 92.2138 74.7139 94.1782 76.0166 96.4684C77.3194 98.7585 78 101.306 78.0002 103.892V104.132L95.5935 113.874C97.8468 112.699 100.377 112.036 102.96 111.956L115.527 88.7797C113.815 86.3663 112.841 83.5719 112.707 80.6908C112.573 77.8097 113.285 74.9486 114.766 72.4091C116.248 69.8696 118.445 67.7456 121.126 66.261C123.807 64.7764 126.873 63.9862 130 63.9735C130.378 63.9602 130.756 63.9871 131.127 64.0534L140.14 51.5944L149.162 39.1593C147.588 36.2366 147.023 32.9398 147.541 29.7119C148.059 26.484 149.636 23.4797 152.06 21.1025C154.484 18.7253 157.639 17.0893 161.101 16.4142C164.563 15.7391 168.166 16.0573 171.427 17.326L194.133 1.59834C195.044 0.968649 196.08 0.510493 197.182 0.250031C198.285 -0.0104311 199.432 -0.0680987 200.559 0.0803208C201.685 0.22874 202.769 0.58034 203.749 1.11505C204.728 1.64975 205.584 2.35709 206.266 3.19668C206.949 4.03626 207.446 4.99166 207.729 6.00831C208.011 7.02496 208.074 8.08295 207.913 9.12189C207.752 10.1608 207.37 11.1604 206.791 12.0634C206.211 12.9665 205.444 13.7554 204.533 14.385Z" fill="url(#paint1_linear_107_113)"/>
<path d="M64.9097 2.67651V2.73036V8.11539C76.2751 9.56934 84.3266 20.3125 82.9286 32.1326C81.7377 41.9333 74.3334 49.7147 64.9097 50.8725V56.2575C79.1488 54.7766 89.5045 41.6372 88.0806 26.8283C86.9155 14.0389 77.1553 3.94199 64.9097 2.67651ZM59.7319 2.75729C54.6835 3.26887 49.8681 5.28825 45.9329 8.68082L49.6351 12.6657C52.5347 10.2425 56.0297 8.68082 59.7319 8.14231V2.75729ZM42.2825 12.4773C39.0205 16.5699 37.0788 21.551 36.561 26.8283H41.7389C42.2308 23.005 43.6806 19.3701 45.9847 16.3275L42.2825 12.4773ZM36.5869 32.2134C37.1047 37.4907 39.0982 42.4718 42.3084 46.5645L45.9847 42.7142C43.7065 39.6716 42.2308 36.0367 41.7648 32.2134H36.5869ZM49.6351 46.6722L45.9329 50.3609C49.8422 53.7535 54.6576 55.8806 59.7319 56.446V51.061C56.0556 50.5763 52.5606 49.0416 49.6351 46.6722ZM63.6153 16.0583V30.194L75.2654 37.383L73.3237 40.6948L59.7319 32.2134V16.0583H63.6153Z" fill="url(#paint2_linear_107_113)"/>
<defs>
<linearGradient id="paint0_linear_107_113" x1="206.636" y1="5.34527" x2="17.5936" y2="231.596" gradientUnits="userSpaceOnUse">
<stop offset="0.293269" stop-color="#00F0B1"/>
<stop offset="1" stop-color="#417CBC"/>
</linearGradient>
<linearGradient id="paint1_linear_107_113" x1="206.863" y1="4.45439" x2="49.3285" y2="192.998" gradientUnits="userSpaceOnUse">
<stop offset="0.293269" stop-color="#00F0B1"/>
<stop offset="1" stop-color="#417CBC"/>
</linearGradient>
<linearGradient id="paint2_linear_107_113" x1="78.6597" y1="-4.31407" x2="-4.16924" y2="99.6135" gradientUnits="userSpaceOnUse">
<stop stop-color="#00F0B1"/>
<stop offset="1" stop-color="#417DBC"/>
</linearGradient>
</defs>
</svg>
